<?xml version="1.0" encoding="UTF-8" standalone="no"?>
<svg width="34px" height="34px" viewBox="0 0 34 34" version="1.1" xmlns="http://www.w3.org/2000/svg" xmlns:xlink="http://www.w3.org/1999/xlink" xmlns:sketch="http://www.bohemiancoding.com/sketch/ns">
    <!-- Generator: Sketch 3.3.3 (12081) - http://www.bohemiancoding.com/sketch -->
    <title>spinner</title>
    <desc>Created with Sketch.</desc>
    <defs></defs>
    <g id="Page-1" stroke="none" stroke-width="1" fill="none" fill-rule="evenodd" sketch:type="MSPage">
        <g id="Evil-Icons" sketch:type="MSArtboardGroup" transform="translate(-278.000000, -528.000000)">
            <g id="spinner" sketch:type="MSLayerGroup" transform="translate(278.000000, 528.000000)">
                <path d="M17,10 C16.447,10 16,9.553 16,9 L16,1 C16,0.447 16.447,0 17,0 C17.553,0 18,0.447 18,1 L18,9 C18,9.553 17.553,10 17,10" id="Fill-86" fill="#FF6666" sketch:type="MSShapeGroup"></path>
                <path d="M17,24 C16.447,24 16,24.447 16,25 L16,33 C16,33.553 16.447,34 17,34 C17.553,34 18,33.553 18,33 L18,25 C18,24.447 17.553,24 17,24" id="Fill-87" fill="#FFD1D1" sketch:type="MSShapeGroup"></path>
                <path d="M25.002,2.215 C24.68,2.215 24.367,2.38 24.194,2.679 L20.194,9.608 C19.937,10.052 20.09,10.621 20.535,10.878 C20.682,10.962 20.842,11.002 20.999,11.002 C21.32,11.002 21.633,10.836 21.806,10.537 L25.806,3.608 C26.062,3.164 25.91,2.595 25.465,2.338 C25.319,2.254 25.159,2.215 25.002,2.215" id="Fill-88" fill="#FFD1D1" sketch:type="MSShapeGroup"></path>
                <path d="M13.002,22.999 C12.68,22.999 12.367,23.165 12.194,23.463 L8.194,30.392 C7.937,30.836 8.09,31.405 8.535,31.662 C8.682,31.746 8.842,31.786 8.999,31.786 C9.32,31.786 9.633,31.62 9.806,31.321 L13.806,24.392 C14.062,23.948 13.91,23.379 13.465,23.122 C13.319,23.039 13.159,22.999 13.002,22.999" id="Fill-89" fill="#FFD1D1" sketch:type="MSShapeGroup"></path>
                <path d="M9,2.214 C8.842,2.214 8.682,2.254 8.535,2.338 C8.09,2.595 7.937,3.164 8.194,3.608 L12.194,10.537 C12.367,10.836 12.68,11.002 13.001,11.002 C13.158,11.002 13.318,10.962 13.465,10.878 C13.91,10.621 14.062,10.052 13.806,9.608 L9.806,2.679 C9.633,2.38 9.321,2.214 9,2.214" id="Fill-90" fill="#FF7171" sketch:type="MSShapeGroup"></path>
                <path d="M21,22.998 C20.842,22.998 20.682,23.038 20.535,23.122 C20.09,23.379 19.937,23.948 20.194,24.392 L24.194,31.321 C24.367,31.62 24.68,31.786 25.001,31.786 C25.158,31.786 25.318,31.746 25.465,31.662 C25.91,31.405 26.062,30.836 25.806,30.392 L21.806,23.463 C21.633,23.164 21.321,22.998 21,22.998" id="Fill-91" fill="#FFD1D1" sketch:type="MSShapeGroup"></path>
                <path d="M9,16 L1,16 C0.447,16 0,16.447 0,17 C0,17.553 0.447,18 1,18 L9,18 C9.553,18 10,17.553 10,17 C10,16.447 9.553,16 9,16" id="Fill-92" fill="#FF9B9B" sketch:type="MSShapeGroup"></path>
                <path d="M33,16 L25,16 C24.447,16 24,16.447 24,17 C24,17.553 24.447,18 25,18 L33,18 C33.553,18 34,17.553 34,17 C34,16.447 33.553,16 33,16" id="Fill-93" fill="#FFD1D1" sketch:type="MSShapeGroup"></path>
                <path d="M3.144,8.07 C2.823,8.07 2.511,8.237 2.338,8.535 C2.081,8.979 2.233,9.549 2.679,9.806 L9.607,13.806 C9.754,13.89 9.914,13.93 10.071,13.93 C10.392,13.93 10.705,13.764 10.878,13.465 C11.135,13.021 10.982,12.451 10.537,12.194 L3.608,8.194 C3.462,8.11 3.302,8.07 3.144,8.07" id="Fill-94" fill="#FF7C7C" sketch:type="MSShapeGroup"></path>
                <path d="M23.929,20.07 C23.608,20.07 23.295,20.237 23.122,20.535 C22.865,20.979 23.018,21.549 23.463,21.806 L30.392,25.806 C30.538,25.89 30.698,25.93 30.855,25.93 C31.177,25.93 31.489,25.764 31.662,25.465 C31.919,25.021 31.767,24.451 31.321,24.194 L24.393,20.194 C24.246,20.11 24.086,20.07 23.929,20.07" id="Fill-95" fill="#FFD1D1" sketch:type="MSShapeGroup"></path>
                <path d="M10.072,20.07 C9.914,20.07 9.754,20.11 9.607,20.194 L2.679,24.194 C2.233,24.451 2.081,25.021 2.338,25.465 C2.511,25.764 2.823,25.93 3.145,25.93 C3.302,25.93 3.462,25.89 3.608,25.806 L10.537,21.806 C10.982,21.549 11.135,20.979 10.878,20.535 C10.705,20.237 10.393,20.07 10.072,20.07" id="Fill-96" fill="#FFBCBC" sketch:type="MSShapeGroup"></path>
                <path d="M30.856,8.07 C30.698,8.07 30.538,8.11 30.392,8.194 L23.463,12.194 C23.018,12.451 22.865,13.021 23.122,13.465 C23.295,13.764 23.607,13.93 23.929,13.93 C24.086,13.93 24.246,13.89 24.393,13.806 L31.321,9.806 C31.767,9.549 31.919,8.979 31.662,8.535 C31.489,8.237 31.177,8.07 30.856,8.07" id="Fill-97" fill="#FFD1D1" sketch:type="MSShapeGroup"></path>
            </g>
        </g>
    </g>
</svg>