<svg width="17" height="18" viewBox="0 0 17 18" version="1.1" xmlns="http://www.w3.org/2000/svg" xmlns:xlink="http://www.w3.org/1999/xlink">
<g id="Canvas" fill="none">
<g id="Shape">
<path id="Vector" d="M 4.96268 9.80958C 1.79225 9.98778 -0.128793 11.6331 0.00672652 14.0922C 0.145812 16.5941 2.70165 18.1313 5.25869 17.9912C 9.41936 17.7536 12.4887 14.059 12.8347 9.83216C 12.2683 9.96379 11.6916 10.0461 11.111 10.0781C 8.77029 10.2099 7.30336 9.67772 4.96268 9.80958ZM 11.8195 8.75229C 15.1302 8.56221 17.1344 6.80401 16.993 4.17621C 16.8479 1.50327 14.1804 -0.144448 11.5116 0.00998824C 7.1619 0.260651 3.96293 4.21185 3.60274 8.72853C 4.19321 8.58744 4.79515 8.49957 5.40134 8.46599C 7.84544 8.32462 9.37894 8.89366 11.8195 8.75229Z" fill="white"/>
</g>
</g>
</svg>
